<?xml version="1.0" encoding="UTF-8"?>
<svg id="Calque_2" data-name="Calque 2" xmlns="http://www.w3.org/2000/svg" viewBox="0 0 208.01 261.37">
  <defs>
    <style>
      .cls-1 {
        fill: #fff;
      }
    </style>
  </defs>
  <g id="Calque_1-2" data-name="Calque 1">
    <g>
      <path class="cls-1" d="M128.17,87.99c-5.98-10.06-14.11-18.11-24.43-24.17-10.32-6.05-22.05-9.07-35.17-9.07s-24.87,2.89-35.19,8.68c-10.32,5.81-18.45,13.68-24.43,23.66C2.99,97.08,0,108.47,0,121.25v140.11h36.32v-84.76c2.65,2.1,5.57,3.98,8.71,5.64,7.84,4.2,16.38,6.27,25.57,6.27,13.15,0,24.7-2.85,34.68-8.56,9.96-5.72,17.78-13.65,23.4-23.78,5.62-10.15,8.44-21.78,8.44-34.93,0-12.11-2.99-23.18-8.95-33.26ZM96.7,137.87c-2.73,4.97-6.51,8.92-11.38,11.92-4.85,2.97-10.44,4.46-16.74,4.46s-11.65-1.5-16.5-4.46c-4.87-2.99-8.71-6.95-11.53-11.92-2.8-4.94-4.22-10.4-4.22-16.35s1.42-11.43,4.22-16.38c2.82-4.94,6.66-8.88,11.53-11.77,4.85-2.89,10.35-4.34,16.5-4.34s11.89,1.45,16.74,4.34c4.87,2.89,8.66,6.83,11.38,11.77,2.73,4.94,4.1,10.4,4.1,16.38s-1.37,11.41-4.1,16.35Z"/>
      <path class="cls-1" d="M171.68,0h36.32v261.37h-36.32V0Z"/>
    </g>
  </g>
</svg>